<?xml version="1.0" encoding="UTF-8"?>
<svg id="Layer_1" xmlns="http://www.w3.org/2000/svg" version="1.1" viewBox="0 0 749.3933 780">
  <!-- Generator: Adobe Illustrator 29.0.1, SVG Export Plug-In . SVG Version: 2.1.0 Build 192)  -->
  <defs>
    <style>
      .st0 {
        fill: #0f1432;
      }

      .st1 {
        fill: #fa0;
      }

      .st2 {
        fill: #ff001e;
      }
    </style>
  </defs>
  <path class="st0" d="M131.69,689.365l-45.305,89.49,1.56,1.145h24.44l7.565-15.585-3.875-2.785-.36-1.885h26.51l-2.36,19.145,1.575,1.11h24.3l9.275-89.41-1.565-1.225h-41.765.005ZM144.005,745.805h-15.125l17.09-35.25h2.5l-4.47,35.25h.005ZM511.62,689.365h-24.375l-27.345,89.445,1.615,1.19h24.38l27.345-89.445-1.62-1.19h0ZM605.16,689.365l-27.345,89.445,1.625,1.19h56.22l4.52-14.785-1.625-1.185h-29.86l5.905-19.32-4.445-3.215-.365-1.885h32.995l4.205-13.765-1.615-1.19h-24.645l4.665-15.24-4.455-3.21-.365-1.89h38.225l4.21-13.76-1.625-1.19h-56.225v.0002ZM585.28,691.335l-3.585-1.97h-56.52l-27.345,89.445,1.625,1.19h54.23l4.85-2c6.23-2.54,10.545-6.855,12.165-12.13l19.165-62.69c1.6-5.25.015-9.345-4.585-11.845h0ZM562.195,707.445l-16.44,53.765c-.34,1.125-.85,1.895-2.545,2.755l-.115.06h-14.385l16.7-54.62-4.45-3.205-.365-1.89h20.465l.145.11c1.3.96,1.35,1.865.99,3.025h0ZM415.725,689.365l-37.8,74.665h-22.035l22.465-73.475-1.62-1.19h-24.38l-27.35,89.445,1.62,1.19h69.795l7.565-15.585-3.88-2.785-.365-1.885h26.51l-2.355,19.145,1.575,1.11h24.295l9.28-89.41-1.565-1.225h-41.76.005,0ZM428.04,745.805h-15.125l17.09-35.25h2.505l-4.47,35.25ZM325.02,725.845l-1.62-1.19h-24.64l4.66-15.24-4.45-3.21-.365-1.89h38.22l4.21-13.76-1.625-1.19h-56.2201l-27.35,89.445,1.62,1.19h56.23l4.515-14.785-1.615-1.185h-29.865l5.9-19.32-4.445-3.215-.365-1.885h33l4.2-13.765h.005ZM263.32,691.335l-3.59-1.97h-56.52l-27.345,89.445,1.62,1.19h54.23l4.85-2c6.23-2.54,10.55-6.85,12.165-12.13l19.165-62.69c1.6-5.25.015-9.34-4.585-11.845h.01ZM240.23,707.445l-16.445,53.765c-.34,1.125-.84,1.895-2.54,2.755l-.115.06h-14.385l16.7-54.62-4.45-3.205-.37-1.89h20.47l.15.11c1.3.96,1.345,1.865.985,3.025h0ZM744.29,560.18l-30.68-47.54-7.44-19.33c-4.045-10.385-11.65-16.16-14.18-18.075l-80.93-57.035-6.47-2.95-.535-2.345,74.01-88.75-3.455-12.5c-1.635-5.95-5.38-10.75-10.01-12.87L7.5,0,0,9.63l116.505,139.38,399.9,159.5,10.325,9.215,80.41,30.13c5.21,1.885,9.35,6.05,10.955,11.355l1.025,3.935-75.195,90.26-50.285-12.99-34.58-30.78-145.005-40.975-58.045-69.8-.72-.22-6.18,8.125,44.305,53.325-1.54,2.43L21.56,292.7l-6.27,8.055,122.97,111.335,224.96,54.345,3.7,3.295-188.58-35.805-6.5,8.53,116.725,105.95,118.25-26.83,4.09,2.425,11.335,39.68,74.5,43.435,1.505,37.345,27.045,12.04,6.225-.96-4.79-22.33,5.015-4.33,29.89,11.205,24.45,22.085,8.62-2.6-8.725-40.42-61.375-22.995-45.85-40.54,14.82-19.42,58.495,34.105.63,22.685,30.05,11.26-3.14-14.55,5.015-4.33,26.735,9.995,21.975,19.935,7.485-2.26-7.975-36.965-52.955-16.775-44.245-39.125,9.925-12.92,94.06,21.725,106.55,63.165,2.945-3.115.13-2.395c.235-4.485.865-16.38-4.96-26.44v-.01h0ZM690.925,500.005c-1.7004.6586-3.5065,1.0026-5.33,1.015-5.755,0-9.945-3.61-11.755-6.35l-15.52-22.84.83-1.09,23.735,16.725c3.075,2.34,6.835,5.725,9.025,11.245l-.985,1.295h0ZM488.18,364.325l-267.36-90.915-72.335-86.67,6.355-8.36,1.44.535,72.76,87.185,249.1,89.285,10.035,8.935h.005v.0049Z"/>
  <path class="st2" d="M691.905,498.71l-.98,1.295c-1.7022.6586-3.5099,1.0025-5.335,1.015-5.755,0-9.945-3.61-11.75-6.35l-15.525-22.84.83-1.09,23.735,16.725c3.075,2.34,6.835,5.725,9.025,11.245h0ZM607.135,347.86L156.275,178.915l72.76,87.185,249.1,89.285,19.63,17.475,52.745,16.125c6.5979,1.9941,11.7046,7.2443,13.515,13.895l1.33,5.865-34.69,41.235,13.255,3.425,75.195-90.26-1.025-3.935c-1.6-5.31-5.745-9.47-10.955-11.35v-.01.01Z"/>
  <path class="st1" d="M565.36,408.745l-1.265-5.62c-1.7451-6.7624-6.8936-12.1233-13.58-14.14l-294.505-90.135,58.045,69.8,145.005,40.97,34.58,30.785,37.03,9.565,34.69-41.24v.015Z"/>
</svg>